<svg id="svg" version="1.1" width="400" height="400" 
  xmlns="http://www.w3.org/2000/svg" 
  xmlns:xlink="http://www.w3.org/1999/xlink" style="display: block;">
  <g id="svgg">
    <path id="path0" d="M120.600 140.819 C 115.698 141.439,112.452 143.277,109.511 147.100 C 108.036 149.017,106.987 153.882,107.392 156.927 C 108.201 163.004,111.469 166.919,117.586 169.138 L 119.500 169.832 122.500 169.761 C 125.401 169.693,125.544 169.669,126.842 169.045 C 127.580 168.690,128.257 168.400,128.347 168.400 C 128.903 168.400,132.195 165.951,132.936 164.987 C 141.252 154.163,133.602 139.174,120.600 140.819 M282.913 141.216 C 278.495 142.206,275.220 144.880,273.185 149.158 C 271.161 153.412,271.819 160.305,274.554 163.492 C 274.854 163.843,275.385 164.542,275.733 165.047 C 276.328 165.908,278.923 167.839,280.209 168.377 C 284.364 170.114,287.902 170.388,290.868 169.200 C 291.692 168.870,292.475 168.600,292.607 168.600 C 292.738 168.600,293.263 168.296,293.773 167.925 C 294.283 167.553,295.150 167.018,295.700 166.735 C 296.323 166.414,296.922 165.897,297.290 165.360 C 297.615 164.887,298.215 164.095,298.624 163.600 C 301.979 159.542,302.220 152.148,299.148 147.555 C 297.050 144.418,294.118 142.126,291.400 141.498 C 287.070 140.498,286.242 140.470,282.913 141.216 M172.500 298.116 C 172.369 298.171,172.318 303.153,172.353 312.641 C 172.390 322.956,172.339 327.398,172.175 328.191 C 172.048 328.801,171.867 331.865,171.773 335.000 C 171.610 340.432,171.352 347.007,171.105 352.000 C 171.042 353.265,170.861 355.200,170.703 356.300 C 170.545 357.400,170.313 359.245,170.187 360.400 C 169.814 363.831,169.642 364.130,167.432 365.200 C 164.257 366.738,153.789 366.646,143.565 364.989 C 136.431 363.833,133.813 364.486,130.935 368.138 C 128.357 371.410,129.121 377.447,132.455 380.150 C 134.718 381.985,135.949 382.156,143.300 381.650 C 145.170 381.521,147.825 381.364,149.200 381.300 C 151.785 381.180,155.428 380.801,158.900 380.291 C 160.000 380.129,161.845 379.904,163.000 379.791 C 164.155 379.678,166.000 379.328,167.100 379.013 C 168.200 378.698,169.595 378.331,170.200 378.198 C 170.805 378.065,171.840 377.610,172.500 377.188 C 173.160 376.765,174.018 376.287,174.408 376.125 C 177.905 374.667,181.171 369.962,181.615 365.740 C 181.721 364.728,181.897 363.129,182.004 362.186 C 182.112 361.244,182.200 359.561,182.200 358.446 C 182.200 357.332,182.290 355.988,182.401 355.460 C 182.528 354.851,182.620 344.260,182.651 326.468 L 182.700 298.435 181.617 298.218 C 180.607 298.015,172.943 297.929,172.500 298.116 M215.700 298.211 C 213.720 298.287,212.075 298.361,212.045 298.375 C 212.014 298.389,212.027 311.068,212.072 326.550 C 212.171 359.943,212.317 364.178,213.493 367.700 C 213.750 368.470,214.063 369.482,214.188 369.949 C 214.605 371.506,218.087 375.122,220.215 376.208 C 220.690 376.450,221.534 376.949,222.090 377.317 C 222.766 377.763,223.696 378.122,224.900 378.401 C 225.890 378.630,227.245 378.985,227.912 379.190 C 228.579 379.396,230.199 379.665,231.512 379.790 C 232.825 379.914,234.755 380.144,235.800 380.300 C 239.216 380.809,242.854 381.186,245.400 381.296 C 247.828 381.400,251.751 381.652,255.181 381.922 C 262.135 382.471,266.421 377.457,264.709 370.775 C 263.440 365.822,258.767 363.606,252.100 364.795 C 241.229 366.735,229.977 366.856,226.573 365.071 C 224.401 363.931,224.372 363.878,224.163 360.557 C 224.064 358.985,223.851 356.755,223.690 355.600 C 223.529 354.445,223.396 352.825,223.394 352.000 C 223.392 351.175,223.294 350.140,223.176 349.700 C 222.672 347.818,222.237 330.882,222.216 312.271 C 222.202 299.673,222.168 298.230,221.884 298.121 C 221.546 297.992,221.249 297.996,215.700 298.211 " stroke="none" fill="#000000" fill-rule="evenodd"></path>
    <path id="path1" d="M186.600 77.827 C 174.815 78.156,166.587 78.747,160.900 79.675 C 159.250 79.944,157.135 80.221,156.200 80.290 C 153.590 80.483,151.449 80.788,149.800 81.202 C 148.975 81.409,147.445 81.717,146.400 81.888 C 145.355 82.059,143.645 82.423,142.600 82.698 C 141.555 82.973,139.530 83.412,138.100 83.673 C 136.670 83.934,135.180 84.283,134.789 84.448 C 134.398 84.612,133.453 84.902,132.689 85.092 C 131.925 85.282,130.670 85.712,129.900 86.048 C 129.130 86.385,127.761 86.822,126.857 87.020 C 125.953 87.218,124.603 87.644,123.857 87.967 C 123.111 88.291,122.275 88.622,122.000 88.704 C 121.725 88.786,120.915 89.144,120.200 89.500 C 119.485 89.857,118.375 90.300,117.733 90.485 C 116.347 90.884,115.717 91.184,109.400 94.449 C 106.216 96.095,101.607 98.859,99.861 100.170 C 99.180 100.682,97.560 101.892,96.261 102.860 C 91.455 106.442,90.886 106.931,87.009 110.810 C 86.179 111.641,85.068 112.668,84.540 113.092 C 83.556 113.884,80.848 116.902,79.600 118.598 C 79.215 119.121,78.507 120.065,78.028 120.696 C 75.991 123.375,71.716 131.394,71.216 133.475 C 71.087 134.010,70.759 134.889,70.486 135.427 C 69.949 136.488,68.699 140.851,68.289 143.100 C 67.606 146.847,67.340 159.153,67.803 165.600 C 68.301 172.536,68.421 173.830,68.612 174.332 C 68.723 174.624,69.038 176.144,69.312 177.711 C 69.586 179.278,70.036 181.221,70.313 182.030 C 70.590 182.838,70.989 184.273,71.201 185.219 C 71.413 186.164,71.860 187.619,72.193 188.452 C 72.527 189.285,72.800 190.080,72.800 190.218 C 72.800 190.486,74.182 193.421,75.853 196.700 C 76.414 197.800,77.340 199.375,77.912 200.200 C 78.483 201.025,79.133 202.060,79.356 202.500 C 79.579 202.940,80.006 203.525,80.305 203.800 C 80.604 204.075,81.214 204.790,81.659 205.388 C 83.355 207.666,88.424 212.629,91.751 215.267 C 92.548 215.900,93.358 216.584,93.551 216.788 C 93.743 216.991,94.395 217.447,95.000 217.801 C 95.605 218.155,96.730 218.916,97.500 219.493 C 100.659 221.857,108.140 226.004,110.100 226.477 C 110.430 226.556,111.375 226.926,112.200 227.299 C 115.251 228.676,117.350 229.457,119.265 229.926 C 120.346 230.191,121.583 230.587,122.014 230.807 C 122.445 231.027,123.608 231.424,124.599 231.689 C 125.589 231.954,126.899 232.358,127.510 232.587 C 128.121 232.815,129.719 233.179,131.061 233.395 C 132.402 233.611,133.905 233.924,134.400 234.090 C 136.482 234.790,145.359 236.382,148.900 236.691 C 153.341 237.077,155.667 237.360,156.253 237.582 C 156.500 237.676,158.186 237.858,160.001 237.986 C 161.815 238.115,164.125 238.305,165.134 238.410 C 166.143 238.514,167.718 238.602,168.634 238.605 C 169.550 238.607,170.660 238.702,171.100 238.816 C 174.412 239.670,200.443 239.665,207.100 238.809 C 209.779 238.464,211.823 238.245,214.531 238.013 C 215.868 237.898,217.214 237.709,217.522 237.592 C 218.118 237.365,219.075 237.220,224.000 236.609 C 225.705 236.397,227.576 236.079,228.158 235.902 C 228.741 235.724,230.451 235.321,231.958 235.005 C 233.466 234.689,235.032 234.289,235.438 234.118 C 235.843 233.946,237.311 233.623,238.699 233.400 C 240.088 233.177,241.747 232.775,242.386 232.506 C 243.026 232.237,244.213 231.867,245.025 231.683 C 245.836 231.500,246.843 231.177,247.262 230.965 C 247.681 230.753,248.986 230.322,250.162 230.007 C 251.338 229.692,253.065 229.113,254.000 228.721 C 254.935 228.328,255.835 228.005,256.000 228.001 C 256.165 227.998,256.698 227.767,257.185 227.489 C 257.672 227.211,258.711 226.811,259.493 226.602 C 260.276 226.392,261.407 225.992,262.008 225.712 C 262.609 225.433,263.251 225.203,263.434 225.202 C 263.618 225.201,264.473 224.846,265.334 224.413 C 266.196 223.980,268.025 223.118,269.400 222.497 C 270.775 221.875,273.790 220.417,276.100 219.257 C 278.410 218.097,280.840 216.876,281.500 216.545 C 282.160 216.213,283.041 215.651,283.458 215.295 C 283.875 214.939,284.633 214.531,285.142 214.388 C 285.650 214.246,286.344 213.892,286.683 213.602 C 287.022 213.312,287.750 212.819,288.300 212.506 C 288.850 212.193,289.545 211.733,289.845 211.485 C 290.145 211.237,290.730 210.926,291.145 210.794 C 291.560 210.661,292.710 209.949,293.700 209.210 C 294.690 208.472,295.864 207.732,296.308 207.566 C 296.753 207.401,297.979 206.628,299.033 205.849 C 300.088 205.071,301.299 204.241,301.725 204.006 C 302.836 203.393,304.350 202.324,305.075 201.641 C 305.419 201.317,306.195 200.740,306.800 200.359 C 307.405 199.978,308.413 199.179,309.041 198.583 C 309.668 197.987,310.696 197.140,311.324 196.700 C 311.952 196.260,312.634 195.617,312.839 195.272 C 313.045 194.927,313.548 194.419,313.957 194.144 C 314.848 193.544,315.293 193.110,319.634 188.614 C 321.485 186.696,323.000 185.047,323.000 184.949 C 323.000 184.851,323.703 184.035,324.563 183.135 C 325.422 182.236,326.581 180.825,327.138 180.000 C 327.694 179.175,328.353 178.320,328.602 178.100 C 329.009 177.741,329.628 176.858,332.035 173.213 C 333.282 171.325,334.374 169.316,334.881 167.979 C 335.148 167.275,335.639 166.115,335.971 165.400 C 336.304 164.685,336.957 162.660,337.423 160.900 L 338.269 157.700 338.356 152.500 C 338.448 146.958,338.246 143.902,337.569 140.600 C 337.354 139.555,337.006 137.800,336.794 136.700 C 336.319 134.230,335.164 130.469,333.905 127.300 C 330.909 119.752,324.528 111.589,317.491 106.300 C 316.906 105.860,315.981 105.140,315.437 104.700 C 313.825 103.397,311.981 102.114,310.700 101.405 C 310.040 101.039,309.050 100.400,308.500 99.984 C 307.950 99.569,307.062 99.041,306.527 98.812 C 305.992 98.582,305.317 98.231,305.027 98.030 C 304.737 97.830,304.095 97.509,303.600 97.316 C 303.105 97.123,302.189 96.656,301.564 96.277 C 300.939 95.898,299.936 95.419,299.334 95.212 C 298.732 95.005,298.023 94.693,297.759 94.520 C 297.495 94.347,296.764 94.028,296.134 93.812 C 295.505 93.595,294.475 93.151,293.845 92.824 C 293.215 92.497,292.163 92.080,291.506 91.897 C 290.849 91.713,289.994 91.404,289.606 91.210 C 289.218 91.015,288.225 90.696,287.400 90.500 C 286.575 90.304,285.038 89.804,283.985 89.388 C 282.932 88.972,281.717 88.568,281.285 88.490 C 280.853 88.413,279.996 88.140,279.379 87.884 C 278.763 87.629,277.188 87.235,275.879 87.010 C 274.571 86.785,272.600 86.341,271.500 86.022 C 270.399 85.704,268.587 85.298,267.473 85.121 C 266.359 84.944,265.099 84.654,264.674 84.476 C 264.249 84.299,262.446 83.987,260.667 83.785 C 258.889 83.582,256.278 83.183,254.867 82.898 C 253.455 82.613,250.680 82.163,248.700 81.899 C 246.720 81.634,244.020 81.242,242.700 81.026 C 241.380 80.810,237.825 80.484,234.800 80.300 C 231.775 80.117,228.940 79.887,228.500 79.789 C 228.060 79.690,227.114 79.608,226.399 79.605 C 225.683 79.602,224.783 79.505,224.399 79.389 C 223.287 79.052,214.221 78.545,205.200 78.315 C 202.615 78.250,199.780 78.109,198.900 78.002 C 196.692 77.736,192.173 77.671,186.600 77.827 M288.400 140.379 C 289.225 140.472,290.215 140.681,290.600 140.843 C 290.985 141.005,291.660 141.204,292.100 141.285 C 294.263 141.685,298.212 145.040,299.999 147.998 C 302.558 152.233,302.032 160.339,298.967 163.911 C 298.490 164.467,297.877 165.249,297.604 165.650 C 297.331 166.050,296.763 166.586,296.342 166.839 C 295.921 167.093,295.046 167.633,294.398 168.040 C 293.749 168.446,292.517 169.076,291.659 169.439 L 290.100 170.098 286.600 170.099 L 283.100 170.100 281.400 169.380 C 279.057 168.387,276.138 166.405,275.452 165.342 C 275.154 164.879,274.580 164.116,274.178 163.648 C 273.775 163.179,273.098 162.009,272.673 161.048 L 271.900 159.300 271.900 155.093 L 271.900 150.886 272.933 148.793 C 274.804 145.003,278.049 142.154,281.703 141.092 C 284.287 140.342,285.827 140.024,286.400 140.123 C 286.675 140.170,287.575 140.285,288.400 140.379 M126.899 141.092 C 139.794 145.346,140.515 163.027,128.038 169.004 C 123.349 171.251,116.454 170.372,112.374 167.009 C 105.641 161.459,104.928 151.131,110.854 144.986 C 113.351 142.397,114.937 141.579,119.900 140.322 C 121.209 139.990,124.737 140.378,126.899 141.092 " stroke="none" fill="#ffffff" fill-rule="evenodd"></path>
    <path id="path2" d="M223.600 32.457 C 223.545 32.514,222.240 32.660,220.700 32.781 C 219.160 32.903,216.730 33.182,215.300 33.402 C 213.870 33.623,211.440 33.986,209.901 34.209 C 205.486 34.850,203.386 35.200,202.200 35.493 C 201.595 35.643,199.480 35.957,197.500 36.191 C 195.520 36.425,193.135 36.831,192.200 37.094 C 191.265 37.356,189.555 37.718,188.400 37.898 C 187.245 38.077,185.535 38.443,184.600 38.710 C 183.665 38.977,181.703 39.376,180.240 39.596 C 178.776 39.816,176.571 40.260,175.340 40.583 C 174.108 40.906,172.329 41.312,171.386 41.485 C 170.443 41.658,169.003 42.028,168.186 42.307 C 167.369 42.586,165.908 42.951,164.940 43.119 C 163.972 43.287,162.847 43.542,162.440 43.685 C 162.033 43.828,160.440 44.238,158.900 44.597 C 157.360 44.957,155.847 45.379,155.538 45.536 C 155.230 45.694,153.790 46.131,152.338 46.507 C 148.503 47.504,146.370 48.110,144.000 48.880 C 142.164 49.476,139.435 50.330,134.800 51.760 C 134.085 51.980,133.050 52.342,132.500 52.564 C 130.243 53.473,127.645 54.407,126.800 54.613 C 125.943 54.822,124.156 55.545,120.400 57.203 C 119.465 57.616,118.268 58.056,117.739 58.182 C 117.211 58.308,116.176 58.714,115.439 59.084 C 114.703 59.455,113.875 59.822,113.600 59.901 C 113.325 59.980,112.650 60.296,112.100 60.604 C 111.550 60.911,110.612 61.306,110.016 61.481 C 109.420 61.656,108.700 61.951,108.417 62.136 C 107.482 62.749,103.720 64.633,102.600 65.050 C 101.995 65.275,101.140 65.703,100.700 66.001 C 100.260 66.299,98.730 67.153,97.300 67.898 C 95.870 68.644,94.385 69.455,94.000 69.701 C 92.862 70.429,88.597 72.903,87.300 73.588 C 85.291 74.649,81.005 77.301,79.100 78.660 C 78.110 79.367,76.925 80.136,76.466 80.368 C 76.007 80.601,75.035 81.244,74.305 81.796 C 73.575 82.349,72.240 83.289,71.339 83.885 C 70.437 84.482,69.205 85.413,68.600 85.955 C 67.995 86.497,67.189 87.100,66.809 87.296 C 66.429 87.492,65.524 88.248,64.796 88.976 C 64.069 89.704,62.924 90.705,62.252 91.200 C 59.917 92.920,50.330 102.099,49.028 103.863 C 48.589 104.457,47.859 105.237,47.406 105.595 C 46.953 105.954,46.235 106.754,45.811 107.374 C 45.386 107.993,44.662 108.860,44.201 109.300 C 43.740 109.740,43.087 110.505,42.749 111.000 C 42.411 111.495,41.717 112.350,41.207 112.900 C 40.696 113.450,39.864 114.530,39.358 115.300 C 38.851 116.070,38.073 117.195,37.629 117.800 C 37.186 118.405,36.400 119.620,35.883 120.500 C 35.366 121.380,34.517 122.730,33.997 123.500 C 33.477 124.270,32.742 125.485,32.364 126.200 C 31.986 126.915,31.171 128.402,30.554 129.505 C 29.937 130.608,29.273 131.913,29.078 132.405 C 28.883 132.897,28.487 133.705,28.198 134.200 C 26.961 136.321,24.877 141.035,23.876 143.978 C 23.599 144.790,23.243 145.654,23.084 145.897 C 22.924 146.140,22.493 147.232,22.125 148.324 C 20.790 152.289,20.601 152.458,16.924 152.982 C 15.259 153.220,14.026 153.495,13.829 153.673 C 13.648 153.836,12.888 154.327,12.139 154.764 C 11.391 155.201,10.536 155.871,10.239 156.253 C 9.943 156.635,9.102 157.676,8.372 158.567 C 7.336 159.830,6.991 160.420,6.807 161.243 C 6.677 161.824,6.359 162.795,6.101 163.400 C 5.843 164.005,5.332 166.120,4.966 168.100 L 4.300 171.700 4.301 186.900 C 4.301 200.570,4.336 202.251,4.646 203.600 C 4.835 204.425,5.088 205.910,5.206 206.900 C 5.493 209.287,5.716 210.232,6.182 211.034 C 6.395 211.400,6.665 212.225,6.781 212.866 C 6.927 213.669,7.196 214.288,7.646 214.852 C 8.006 215.303,8.480 215.960,8.700 216.314 C 9.539 217.662,10.731 218.978,11.500 219.407 C 11.940 219.652,12.750 220.147,13.300 220.506 C 14.287 221.151,17.526 221.888,21.181 222.300 C 23.411 222.551,24.803 224.170,25.864 227.741 C 26.027 228.289,26.360 229.129,26.605 229.609 C 26.849 230.088,27.219 230.975,27.427 231.580 C 27.635 232.184,27.948 232.896,28.123 233.162 C 28.297 233.429,28.651 234.268,28.909 235.028 C 29.168 235.788,29.557 236.659,29.774 236.963 C 29.991 237.268,30.404 238.051,30.692 238.702 C 30.981 239.353,31.354 240.039,31.522 240.225 C 31.691 240.411,32.097 241.222,32.424 242.027 C 32.752 242.832,33.144 243.628,33.295 243.795 C 33.446 243.963,34.236 245.315,35.049 246.800 C 35.863 248.285,36.882 249.987,37.314 250.581 C 37.746 251.176,38.550 252.360,39.100 253.212 C 40.157 254.850,41.717 256.812,43.700 258.996 C 44.360 259.724,45.133 260.584,45.417 260.909 C 47.016 262.737,52.701 267.395,56.100 269.663 C 57.200 270.397,58.432 271.246,58.837 271.549 C 59.243 271.852,60.305 272.505,61.197 273.000 C 62.090 273.495,63.235 274.170,63.741 274.500 C 66.551 276.332,73.660 280.017,76.443 281.083 C 78.695 281.946,81.278 283.005,82.352 283.506 C 82.930 283.776,84.205 284.172,85.185 284.386 C 86.165 284.600,87.313 284.951,87.735 285.167 C 88.158 285.383,89.448 285.875,90.602 286.261 C 91.756 286.647,93.015 287.096,93.400 287.259 C 93.785 287.422,94.595 287.616,95.200 287.689 C 97.077 287.916,98.449 288.216,99.800 288.693 C 100.515 288.946,101.784 289.293,102.620 289.466 C 103.456 289.638,104.616 289.960,105.199 290.181 C 106.608 290.717,107.772 290.939,111.005 291.291 C 112.492 291.453,114.097 291.723,114.571 291.890 C 115.491 292.214,116.536 292.402,120.200 292.903 C 121.465 293.075,123.310 293.433,124.300 293.697 C 126.154 294.191,128.470 294.481,132.300 294.699 C 133.510 294.767,135.985 295.035,137.800 295.293 C 140.914 295.736,143.093 295.923,150.700 296.404 C 152.460 296.515,154.395 296.739,155.000 296.901 C 155.605 297.063,156.865 297.198,157.800 297.202 C 158.735 297.206,159.860 297.299,160.300 297.409 C 160.740 297.519,162.585 297.646,164.400 297.692 C 166.215 297.738,168.600 297.835,169.700 297.907 C 175.571 298.292,221.902 298.282,230.100 297.894 C 231.310 297.837,233.942 297.745,235.948 297.691 C 237.954 297.636,239.828 297.503,240.111 297.396 C 240.394 297.288,241.329 297.200,242.187 297.200 C 243.046 297.200,244.772 297.028,246.024 296.817 C 247.276 296.606,249.335 296.378,250.600 296.310 C 255.286 296.057,258.757 295.772,260.800 295.474 C 264.778 294.892,265.306 294.830,267.300 294.706 C 271.090 294.470,273.703 294.188,274.700 293.906 C 276.296 293.454,279.571 292.844,281.200 292.694 C 282.025 292.618,283.375 292.342,284.200 292.080 C 285.025 291.818,286.510 291.510,287.500 291.397 C 291.875 290.895,292.707 290.754,293.429 290.385 C 293.850 290.171,295.340 289.767,296.740 289.488 C 298.141 289.209,299.919 288.766,300.693 288.502 C 301.467 288.238,302.862 287.920,303.793 287.796 C 304.723 287.671,306.010 287.348,306.651 287.078 C 307.293 286.809,308.630 286.370,309.623 286.104 C 310.616 285.839,311.805 285.402,312.264 285.134 C 312.724 284.865,313.640 284.536,314.300 284.403 C 314.960 284.269,315.789 283.983,316.142 283.768 C 316.496 283.553,317.396 283.167,318.142 282.911 C 322.604 281.378,334.137 275.996,335.500 274.810 C 335.973 274.398,339.524 272.288,340.100 272.077 C 340.320 271.996,340.944 271.534,341.487 271.051 C 342.031 270.567,342.751 270.029,343.087 269.855 C 343.424 269.681,344.179 269.170,344.765 268.719 C 347.447 266.657,348.241 266.045,349.235 265.273 C 351.788 263.292,359.045 255.577,360.547 253.248 C 360.741 252.947,361.474 251.980,362.176 251.100 C 362.878 250.220,363.593 249.185,363.765 248.800 C 364.058 248.144,365.167 246.345,366.418 244.492 C 366.719 244.048,367.122 243.204,367.314 242.616 C 367.506 242.029,367.962 241.157,368.327 240.679 C 369.163 239.583,370.355 237.230,370.741 235.910 C 370.904 235.354,371.285 234.494,371.587 233.998 C 371.890 233.502,372.252 232.737,372.392 232.298 C 372.531 231.859,372.903 230.985,373.217 230.355 C 373.532 229.725,373.926 228.621,374.093 227.901 C 374.260 227.181,374.590 226.211,374.828 225.746 C 375.065 225.281,375.456 224.315,375.697 223.600 C 376.366 221.609,377.145 221.096,379.726 220.946 C 385.453 220.611,391.686 216.555,392.933 212.351 C 393.104 211.773,393.464 210.868,393.731 210.339 C 393.999 209.810,394.504 208.055,394.853 206.439 L 395.487 203.500 395.546 187.110 L 395.605 170.719 395.091 167.422 C 394.808 165.608,394.393 163.624,394.169 163.012 C 393.945 162.401,393.509 161.112,393.200 160.148 C 392.285 157.290,389.265 153.633,387.300 153.002 C 386.860 152.861,386.094 152.542,385.597 152.293 C 385.046 152.017,383.976 151.754,382.850 151.617 C 378.955 151.143,377.973 150.061,377.377 145.584 C 377.113 143.601,376.869 142.527,376.527 141.850 C 376.263 141.328,375.936 140.360,375.801 139.700 C 375.666 139.040,375.291 137.780,374.968 136.900 C 374.646 136.020,374.245 134.580,374.078 133.700 C 373.911 132.820,373.546 131.605,373.267 131.000 C 372.988 130.395,372.588 129.411,372.378 128.813 C 372.168 128.216,371.806 127.406,371.573 127.013 C 371.341 126.621,370.986 125.715,370.786 125.000 C 370.408 123.651,368.903 120.575,368.099 119.511 C 367.846 119.175,367.498 118.422,367.326 117.838 C 367.155 117.254,366.753 116.444,366.434 116.038 C 366.114 115.632,365.668 114.934,365.441 114.487 C 365.215 114.039,364.882 113.551,364.703 113.403 C 364.524 113.254,364.139 112.720,363.849 112.216 C 363.559 111.712,362.821 110.636,362.211 109.825 C 361.600 109.013,360.925 108.068,360.712 107.725 C 360.326 107.103,357.246 103.317,355.730 101.600 C 352.822 98.308,346.387 92.047,343.705 89.903 C 342.712 89.109,341.720 88.256,341.500 88.008 C 341.280 87.760,340.681 87.344,340.169 87.084 C 339.656 86.825,338.661 86.176,337.956 85.643 C 337.252 85.109,335.645 84.132,334.386 83.470 C 333.126 82.809,331.602 81.940,330.998 81.540 C 330.394 81.139,329.405 80.641,328.800 80.433 C 328.195 80.225,327.295 79.784,326.800 79.453 C 326.305 79.121,325.675 78.783,325.400 78.700 C 325.125 78.618,324.149 78.157,323.231 77.675 C 322.313 77.194,321.420 76.800,321.247 76.800 C 321.074 76.800,320.475 76.542,319.916 76.228 C 319.357 75.913,318.372 75.502,317.726 75.315 C 317.081 75.128,316.210 74.759,315.790 74.494 C 315.371 74.229,314.595 73.906,314.064 73.776 C 313.534 73.645,312.649 73.341,312.097 73.101 C 311.545 72.860,310.150 72.375,308.997 72.022 C 307.844 71.669,306.360 71.171,305.700 70.914 C 305.040 70.657,303.960 70.339,303.300 70.206 C 302.640 70.074,301.515 69.763,300.800 69.515 C 300.085 69.267,298.600 68.865,297.500 68.623 C 296.400 68.380,294.825 68.004,294.000 67.788 C 292.324 67.349,289.222 66.718,287.700 66.506 C 287.150 66.429,285.890 66.159,284.900 65.906 C 283.910 65.652,281.930 65.294,280.500 65.111 C 275.903 64.520,271.903 63.960,271.789 63.891 C 271.670 63.820,264.412 63.101,260.600 62.783 C 259.335 62.678,257.906 62.513,257.425 62.418 C 256.944 62.323,256.214 62.290,255.803 62.345 C 255.392 62.400,254.571 62.329,253.978 62.187 C 252.797 61.904,250.352 61.770,240.100 61.429 C 234.398 61.239,227.801 60.828,225.300 60.507 C 219.216 59.726,218.334 59.529,216.045 58.442 C 212.185 56.609,210.802 51.132,213.284 47.503 C 213.662 46.951,214.084 46.248,214.222 45.940 C 214.855 44.531,219.557 41.883,223.534 40.697 C 227.064 39.644,227.511 39.447,228.274 38.602 C 229.886 36.818,229.761 33.431,228.058 32.784 C 227.468 32.560,223.762 32.288,223.600 32.457 M198.900 78.002 C 199.780 78.109,202.615 78.250,205.200 78.315 C 214.221 78.545,223.287 79.052,224.399 79.389 C 224.783 79.505,225.683 79.602,226.399 79.605 C 227.114 79.608,228.060 79.690,228.500 79.789 C 228.940 79.887,231.775 80.117,234.800 80.300 C 237.825 80.484,241.380 80.810,242.700 81.026 C 244.020 81.242,246.720 81.634,248.700 81.899 C 250.680 82.163,253.455 82.613,254.867 82.898 C 256.278 83.183,258.889 83.582,260.667 83.785 C 262.446 83.987,264.249 84.299,264.674 84.476 C 265.099 84.654,266.359 84.944,267.473 85.121 C 268.587 85.298,270.399 85.704,271.500 86.022 C 272.600 86.341,274.571 86.785,275.879 87.010 C 277.188 87.235,278.763 87.629,279.379 87.884 C 279.996 88.140,280.853 88.413,281.285 88.490 C 281.717 88.568,282.932 88.972,283.985 89.388 C 285.038 89.804,286.575 90.304,287.400 90.500 C 288.225 90.696,289.218 91.015,289.606 91.210 C 289.994 91.404,290.849 91.713,291.506 91.897 C 292.163 92.080,293.215 92.497,293.845 92.824 C 294.475 93.151,295.505 93.595,296.134 93.812 C 296.764 94.028,297.495 94.347,297.759 94.520 C 298.023 94.693,298.732 95.005,299.334 95.212 C 299.936 95.419,300.939 95.898,301.564 96.277 C 302.189 96.656,303.105 97.123,303.600 97.316 C 304.095 97.509,304.737 97.830,305.027 98.030 C 305.317 98.231,305.992 98.582,306.527 98.812 C 307.062 99.041,307.950 99.569,308.500 99.984 C 309.050 100.400,310.040 101.039,310.700 101.405 C 311.981 102.114,313.825 103.397,315.437 104.700 C 315.981 105.140,316.906 105.860,317.491 106.300 C 320.640 108.667,325.442 113.505,328.013 116.901 C 329.387 118.717,330.685 120.783,332.347 123.800 C 333.821 126.477,336.099 133.083,336.794 136.700 C 337.006 137.800,337.354 139.555,337.569 140.600 C 338.246 143.902,338.448 146.958,338.356 152.500 L 338.269 157.700 337.423 160.900 C 336.957 162.660,336.304 164.685,335.971 165.400 C 335.639 166.115,335.148 167.275,334.881 167.979 C 334.374 169.316,333.282 171.325,332.035 173.213 C 329.628 176.858,329.009 177.741,328.602 178.100 C 328.353 178.320,327.694 179.175,327.138 180.000 C 326.581 180.825,325.422 182.236,324.563 183.135 C 323.703 184.035,323.000 184.851,323.000 184.949 C 323.000 185.047,321.485 186.696,319.634 188.614 C 315.293 193.110,314.848 193.544,313.957 194.144 C 313.548 194.419,313.045 194.927,312.839 195.272 C 312.634 195.617,311.952 196.260,311.324 196.700 C 310.696 197.140,309.668 197.987,309.041 198.583 C 308.413 199.179,307.405 199.978,306.800 200.359 C 306.195 200.740,305.419 201.317,305.075 201.641 C 304.350 202.324,302.836 203.393,301.725 204.006 C 301.299 204.241,300.088 205.071,299.033 205.849 C 297.979 206.628,296.753 207.401,296.308 207.566 C 295.864 207.732,294.690 208.472,293.700 209.210 C 292.710 209.949,291.560 210.661,291.145 210.794 C 290.730 210.926,290.145 211.237,289.845 211.485 C 289.545 211.733,288.850 212.193,288.300 212.506 C 287.750 212.819,287.022 213.312,286.683 213.602 C 286.344 213.892,285.650 214.246,285.142 214.388 C 284.633 214.531,283.875 214.939,283.458 215.295 C 283.041 215.651,282.160 216.213,281.500 216.545 C 280.840 216.876,278.410 218.097,276.100 219.257 C 273.790 220.417,270.775 221.875,269.400 222.497 C 268.025 223.118,266.196 223.980,265.334 224.413 C 264.473 224.846,263.618 225.201,263.434 225.202 C 263.251 225.203,262.609 225.433,262.008 225.712 C 261.407 225.992,260.276 226.392,259.493 226.602 C 258.711 226.811,257.672 227.211,257.185 227.489 C 256.698 227.767,256.165 227.998,256.000 228.001 C 255.835 228.005,254.935 228.328,254.000 228.721 C 253.065 229.113,251.338 229.692,250.162 230.007 C 248.986 230.322,247.681 230.753,247.262 230.965 C 246.843 231.177,245.836 231.500,245.025 231.683 C 244.213 231.867,243.026 232.237,242.386 232.506 C 241.747 232.775,240.088 233.177,238.699 233.400 C 237.311 233.623,235.843 233.946,235.438 234.118 C 235.032 234.289,233.466 234.689,231.958 235.005 C 230.451 235.321,228.741 235.724,228.158 235.902 C 227.576 236.079,225.705 236.397,224.000 236.609 C 219.075 237.220,218.118 237.365,217.522 237.592 C 217.214 237.709,215.868 237.898,214.531 238.013 C 211.823 238.245,209.779 238.464,207.100 238.809 C 200.443 239.665,174.412 239.670,171.100 238.816 C 170.660 238.702,169.550 238.607,168.634 238.605 C 167.718 238.602,166.143 238.514,165.134 238.410 C 164.125 238.305,161.815 238.115,160.001 237.986 C 158.186 237.858,156.500 237.676,156.253 237.582 C 155.667 237.360,153.341 237.077,148.900 236.691 C 145.359 236.382,136.482 234.790,134.400 234.090 C 133.905 233.924,132.402 233.611,131.061 233.395 C 129.719 233.179,128.121 232.815,127.510 232.587 C 126.899 232.358,125.589 231.954,124.599 231.689 C 123.608 231.424,122.445 231.027,122.014 230.807 C 121.583 230.587,120.346 230.191,119.265 229.926 C 117.350 229.457,115.251 228.676,112.200 227.299 C 111.375 226.926,110.430 226.556,110.100 226.477 C 108.140 226.004,100.659 221.857,97.500 219.493 C 96.730 218.916,95.605 218.155,95.000 217.801 C 94.395 217.447,93.743 216.991,93.551 216.788 C 93.358 216.584,92.548 215.900,91.751 215.267 C 88.424 212.629,83.355 207.666,81.659 205.388 C 81.214 204.790,80.604 204.075,80.305 203.800 C 80.006 203.525,79.579 202.940,79.356 202.500 C 79.133 202.060,78.483 201.025,77.912 200.200 C 77.340 199.375,76.414 197.800,75.853 196.700 C 74.182 193.421,72.800 190.486,72.800 190.218 C 72.800 190.080,72.527 189.285,72.193 188.452 C 71.860 187.619,71.413 186.164,71.201 185.219 C 70.989 184.273,70.590 182.838,70.313 182.030 C 70.036 181.221,69.586 179.278,69.312 177.711 C 69.038 176.144,68.723 174.624,68.612 174.332 C 68.421 173.830,68.301 172.536,67.803 165.600 C 67.340 159.153,67.606 146.847,68.289 143.100 C 68.699 140.851,69.949 136.488,70.486 135.427 C 70.759 134.889,71.087 134.010,71.216 133.475 C 71.716 131.394,75.991 123.375,78.028 120.696 C 78.507 120.065,79.215 119.121,79.600 118.598 C 80.848 116.902,83.556 113.884,84.540 113.092 C 85.068 112.668,86.179 111.641,87.009 110.810 C 90.886 106.931,91.455 106.442,96.261 102.860 C 97.560 101.892,99.180 100.682,99.861 100.170 C 101.607 98.859,106.216 96.095,109.400 94.449 C 115.717 91.184,116.347 90.884,117.733 90.485 C 118.375 90.300,119.485 89.857,120.200 89.500 C 120.915 89.144,121.725 88.786,122.000 88.704 C 122.275 88.622,123.111 88.291,123.857 87.967 C 124.603 87.644,125.953 87.218,126.857 87.020 C 127.761 86.822,129.130 86.385,129.900 86.048 C 130.670 85.712,131.925 85.282,132.689 85.092 C 133.453 84.902,134.398 84.612,134.789 84.448 C 135.180 84.283,136.670 83.934,138.100 83.673 C 139.530 83.412,141.555 82.973,142.600 82.698 C 143.645 82.423,145.355 82.059,146.400 81.888 C 147.445 81.717,148.975 81.409,149.800 81.202 C 151.449 80.788,153.590 80.483,156.200 80.290 C 157.135 80.221,159.250 79.944,160.900 79.675 C 169.795 78.224,192.468 77.226,198.900 78.002 M120.400 140.621 C 119.135 140.820,117.153 141.357,117.600 141.380 C 117.765 141.388,118.395 141.258,119.000 141.089 C 120.439 140.689,123.744 140.691,125.260 141.093 C 126.686 141.471,126.960 141.467,125.914 141.084 C 125.271 140.848,121.962 140.344,121.600 140.426 C 121.545 140.439,121.005 140.526,120.400 140.621 M285.300 140.500 C 285.190 140.537,284.395 140.718,283.534 140.901 C 282.673 141.084,282.007 141.274,282.056 141.322 C 282.104 141.370,283.012 141.219,284.074 140.985 C 286.118 140.536,286.132 140.536,290.700 141.298 L 291.300 141.398 290.700 141.192 C 289.480 140.773,285.860 140.309,285.300 140.500 M114.287 142.503 C 112.713 143.372,109.776 146.104,109.173 147.262 C 109.047 147.503,109.306 147.295,109.748 146.800 C 111.993 144.283,113.152 143.280,114.773 142.450 C 115.686 141.983,116.313 141.603,116.166 141.607 C 116.020 141.610,115.174 142.014,114.287 142.503 M129.833 142.790 C 130.640 143.335,131.867 144.328,132.560 144.996 C 133.253 145.665,133.734 146.052,133.629 145.856 C 133.240 145.131,129.067 141.800,128.548 141.800 C 128.448 141.800,129.027 142.246,129.833 142.790 M278.585 142.756 C 276.537 144.122,274.492 146.207,273.827 147.604 C 273.630 148.019,273.633 148.040,273.846 147.733 C 275.342 145.569,276.687 144.227,278.699 142.892 C 279.305 142.490,279.800 142.125,279.800 142.081 C 279.800 141.950,279.751 141.977,278.585 142.756 M293.400 142.103 C 293.400 142.152,294.007 142.594,294.750 143.086 C 297.193 144.704,299.484 147.439,300.532 149.986 C 300.784 150.599,300.991 150.965,300.991 150.800 C 300.992 149.869,298.716 146.288,297.111 144.697 C 296.241 143.833,293.400 141.848,293.400 142.103 M134.116 146.900 C 135.003 148.364,135.469 149.289,135.712 150.065 C 135.864 150.550,135.979 150.723,135.987 150.477 C 136.002 149.982,134.793 147.525,134.177 146.800 L 133.753 146.300 134.116 146.900 M108.029 149.914 C 107.793 150.531,107.604 151.140,107.610 151.268 C 107.615 151.396,107.841 150.924,108.112 150.219 C 108.383 149.515,108.572 148.905,108.532 148.865 C 108.492 148.825,108.265 149.297,108.029 149.914 M272.736 149.709 C 272.266 150.695,272.332 150.862,272.823 149.931 C 273.046 149.508,273.194 149.127,273.150 149.084 C 273.107 149.040,272.921 149.322,272.736 149.709 M136.120 151.500 C 136.788 155.311,136.322 158.962,134.782 161.986 C 134.246 163.039,133.978 163.679,134.186 163.408 C 136.190 160.805,137.204 155.253,136.288 151.900 C 136.138 151.350,136.063 151.170,136.120 151.500 M272.046 152.400 C 272.046 152.785,272.088 152.942,272.138 152.750 C 272.188 152.558,272.188 152.243,272.138 152.050 C 272.088 151.858,272.046 152.015,272.046 152.400 M107.254 153.400 C 107.254 153.895,107.293 154.097,107.341 153.850 C 107.389 153.603,107.389 153.197,107.341 152.950 C 107.293 152.703,107.254 152.905,107.254 153.400 M301.262 154.900 C 301.263 155.560,301.300 155.806,301.345 155.446 C 301.389 155.087,301.389 154.547,301.343 154.246 C 301.297 153.946,301.261 154.240,301.262 154.900 M107.054 155.200 C 107.054 155.695,107.093 155.898,107.141 155.650 C 107.189 155.403,107.189 154.998,107.141 154.750 C 107.093 154.503,107.054 154.705,107.054 155.200 M107.250 156.900 C 107.253 157.340,107.294 157.496,107.341 157.248 C 107.389 156.999,107.387 156.639,107.337 156.448 C 107.287 156.256,107.248 156.460,107.250 156.900 M272.050 157.700 C 272.053 158.140,272.094 158.296,272.141 158.048 C 272.189 157.799,272.187 157.439,272.137 157.248 C 272.087 157.056,272.048 157.260,272.050 157.700 M301.046 158.200 C 301.046 158.585,301.088 158.743,301.138 158.550 C 301.188 158.358,301.188 158.043,301.138 157.850 C 301.088 157.658,301.046 157.815,301.046 158.200 M272.414 159.646 C 272.375 160.061,274.073 163.206,274.710 163.900 C 275.338 164.584,275.382 164.606,275.013 164.056 C 274.776 163.702,274.485 163.352,274.366 163.279 C 274.248 163.206,273.763 162.326,273.289 161.323 C 272.815 160.320,272.421 159.566,272.414 159.646 M300.091 161.257 C 299.767 161.940,299.139 162.950,298.695 163.500 C 298.251 164.050,297.621 164.885,297.294 165.356 C 296.895 165.930,296.273 166.442,295.400 166.913 C 294.685 167.299,293.830 167.846,293.500 168.129 C 292.828 168.706,293.182 168.562,294.100 167.887 C 294.430 167.644,295.150 167.219,295.700 166.943 C 296.813 166.385,299.618 162.914,300.418 161.105 C 301.040 159.700,300.769 159.825,300.091 161.257 M108.960 162.709 C 109.359 163.486,112.198 166.579,113.047 167.161 C 114.503 168.159,118.313 169.823,119.064 169.790 C 119.194 169.784,118.485 169.479,117.488 169.112 C 113.871 167.781,112.710 167.000,110.611 164.484 C 108.766 162.273,108.702 162.205,108.960 162.709 M132.892 165.037 C 132.035 166.160,129.572 167.899,127.888 168.570 C 127.344 168.786,126.630 169.106,126.300 169.280 C 125.970 169.455,125.520 169.609,125.300 169.622 C 124.970 169.642,124.961 169.662,125.245 169.737 C 126.617 170.097,132.542 166.243,133.681 164.250 C 133.994 163.702,133.641 164.054,132.892 165.037 M275.406 164.843 C 275.396 165.087,276.632 166.404,277.077 166.624 C 277.310 166.739,277.214 166.599,276.864 166.313 C 276.515 166.027,276.045 165.547,275.821 165.247 C 275.596 164.946,275.410 164.764,275.406 164.843 M277.600 166.855 C 277.600 167.289,282.627 169.811,283.461 169.796 C 283.783 169.790,282.347 169.147,281.048 168.716 C 280.470 168.524,279.570 168.076,279.048 167.720 C 277.866 166.914,277.600 166.756,277.600 166.855 M290.941 169.155 C 290.193 169.451,289.662 169.721,289.761 169.754 C 289.859 169.786,290.606 169.543,291.420 169.212 C 292.234 168.882,292.765 168.612,292.600 168.614 C 292.435 168.615,291.688 168.859,290.941 169.155 M120.641 169.948 C 121.379 169.986,122.639 169.987,123.441 169.949 C 124.244 169.911,123.640 169.879,122.100 169.879 C 120.560 169.879,119.904 169.910,120.641 169.948 M285.041 169.948 C 285.779 169.986,287.039 169.987,287.841 169.949 C 288.644 169.911,288.040 169.879,286.500 169.879 C 284.960 169.879,284.304 169.910,285.041 169.948 " stroke="none" fill="#ffc400" fill-rule="evenodd"></path>
  </g>
</svg>