<?xml version="1.0" standalone="no"?><!DOCTYPE svg PUBLIC "-//W3C//DTD SVG 1.1//EN" "http://www.w3.org/Graphics/SVG/1.1/DTD/svg11.dtd"><svg t="1509094504247" class="icon" style="" viewBox="0 0 1024 1024" version="1.1" xmlns="http://www.w3.org/2000/svg" p-id="3163" xmlns:xlink="http://www.w3.org/1999/xlink" width="32" height="32"><defs><style type="text/css"></style></defs><path d="M556.885333 535.168a59.52 59.52 0 0 0 0-84.202667c-23.274667-23.296-290.986667-206.805333-290.986666-206.805333s183.552 267.733333 206.784 291.008a59.584 59.584 0 0 0 84.202666 0z" fill="#515151" p-id="3164"></path><path d="M538.666667 33.536h-49.6l0.874666 211.413333c0 13.696 2.346667 24.832 16.042667 24.832 13.717333 0 16.448-7.616 16.448-21.290666l0.362667-182.592c240.789333 4.245333 423.850667 204.224 423.850666 428.437333 2.069333 237.738667-197.12 436.565333-429.696 433.365333-253.973333-3.456-432.426667-201.258667-432.426666-433.813333 0-122.389333 56.256-242.688 148.266666-322.944-11.669333-11.648-21.973333-24.021333-21.973333-24.021333-94.378667 82.368-159.936 206.4-159.936 346.965333 0 260.330667 205.205333 466.154667 464 467.456 255.338667-0.704 466.069333-206.634667 464.682667-469.290667C971.349333 226.176 772.970667 45.653333 538.666667 33.536z" fill="#515151" p-id="3165"></path></svg>